<?xml version="1.0" standalone="no"?>
<!DOCTYPE svg PUBLIC "-//W3C//DTD SVG 20010904//EN"
 "http://www.w3.org/TR/2001/REC-SVG-20010904/DTD/svg10.dtd">
<svg version="1.0" xmlns="http://www.w3.org/2000/svg"
 width="463.000000pt" height="463.000000pt" viewBox="0 0 463.000000 463.000000"
 preserveAspectRatio="xMidYMid meet">
<metadata>
Created by potrace 1.14, written by Peter Selinger 2001-2017
</metadata>
<g transform="translate(0.000000,463.000000) scale(0.100000,-0.100000)"
fill="#000000" stroke="none">
<path d="M1920 3518 c-236 -22 -455 -156 -583 -354 -93 -144 -128 -270 -123
-454 3 -142 18 -207 75 -325 78 -165 228 -309 395 -380 60 -25 62 -28 106
-113 179 -344 194 -371 206 -354 9 15 76 139 194 364 29 56 41 70 70 79 202
66 390 244 473 449 46 114 56 164 57 295 1 113 -6 160 -37 255 -93 286 -361
506 -652 536 -91 9 -107 10 -181 2z m179 -489 c99 -33 174 -112 203 -215 57
-197 -99 -401 -302 -395 -54 1 -140 22 -140 33 0 4 -6 8 -14 8 -25 0 -107 89
-132 145 -64 140 -9 314 124 392 84 49 174 60 261 32z"/>
<path d="M27 3372 l-27 -3 0 -638 0 -638 130 0 130 -1 0 385 c-1 212 1 387 3
390 3 2 20 -18 40 -44 19 -26 112 -145 207 -263 94 -118 211 -265 258 -327 48
-61 96 -117 107 -124 12 -8 60 -14 123 -16 l102 -2 0 642 0 642 -107 -2 c-60
-1 -118 -2 -131 -2 l-22 -1 2 -390 c2 -215 0 -389 -3 -388 -5 3 -71 84 -256
318 -262 332 -346 435 -362 446 -18 13 -135 23 -194 16z"/>
<path d="M2917 3052 c-16 -3 -17 -26 -15 -350 l3 -347 90 -1 c50 0 96 2 103 4
9 3 13 20 12 51 -1 25 -1 137 -1 248 l1 201 45 22 c51 25 92 21 121 -12 17
-18 19 -41 20 -257 0 -131 3 -242 7 -247 3 -6 50 -10 104 -9 l98 1 2 228 c1
126 4 240 7 252 19 74 154 78 173 6 4 -15 7 -129 7 -254 0 -126 3 -229 6 -229
3 -1 49 -2 103 -3 80 -1 97 1 98 14 6 92 -2 486 -10 517 -32 118 -143 182
-281 160 -60 -9 -130 -45 -157 -81 l-17 -23 -21 30 c-33 49 -69 70 -128 75
-62 5 -109 -8 -161 -43 l-36 -24 -6 24 c-3 13 -12 29 -19 35 -13 11 -112 19
-148 12z"/>
<path d="M4315 3053 c-72 -6 -145 -28 -207 -60 -38 -20 -68 -40 -68 -44 0 -18
53 -88 70 -94 23 -7 55 -1 105 20 60 26 139 25 166 -2 23 -23 35 -83 18 -93
-5 -4 -34 -8 -63 -9 -58 -2 -139 -20 -198 -45 -107 -45 -154 -142 -121 -251
27 -92 157 -143 277 -108 47 14 111 53 128 77 6 9 28 -33 28 -53 0 -20 34 -33
95 -36 l65 -3 1 57 c4 344 0 441 -21 488 -25 57 -62 98 -111 123 -40 21 -119
36 -164 33z m95 -441 c0 -45 -2 -49 -42 -75 -41 -26 -80 -33 -125 -21 -23 6
-42 47 -36 76 8 34 84 65 166 67 l37 1 0 -48z"/>
<path d="M1975 1410 c-45 -10 -71 -27 -101 -65 -23 -31 -26 -42 -22 -95 4 -52
9 -65 37 -94 90 -93 245 -45 264 82 15 99 -82 192 -178 172z"/>
<path d="M42 1273 l3 -58 845 0 845 0 2 58 1 57 -849 0 -850 0 3 -57z"/>
<path d="M2263 1273 l2 -58 1170 -1 c644 0 1175 1 1181 3 6 2 11 28 12 58 l0
55 -1183 0 -1184 0 2 -57z"/>
</g>
</svg>
