<svg xmlns="http://www.w3.org/2000/svg" width="53.796" height="47.652" viewBox="0 0 53.796 47.652">
  <g id="Comment" transform="translate(-386.312 -2015.129)">
    <g id="Group_27" data-name="Group 27">
      <path id="Path_43" data-name="Path 43" d="M428.165,2015.129H398.227a11.924,11.924,0,0,0-11.915,11.915v16.1a11.643,11.643,0,0,0,7.85,11.1l.112.037,5.659,7.45.149.168a3.007,3.007,0,0,0,4.243,0l.177-.177,3.347-6.816h20.316A11.949,11.949,0,0,0,440.108,2043v-15.953A11.943,11.943,0,0,0,428.165,2015.129ZM437.1,2043a8.925,8.925,0,0,1-8.932,8.894h-22.19l-3.823,7.785-6.069-7.98-.476-.14a8.722,8.722,0,0,1-6.284-8.41v-16.1a8.921,8.921,0,0,1,8.9-8.9h29.938a8.933,8.933,0,0,1,8.932,8.9Z"/>
      <path id="Path_44" data-name="Path 44" d="M428.165,2015.129H398.227a11.924,11.924,0,0,0-11.915,11.915v16.1a11.643,11.643,0,0,0,7.85,11.1l.112.037,5.659,7.45.149.168a3.007,3.007,0,0,0,4.243,0l.177-.177,3.347-6.816h20.316A11.949,11.949,0,0,0,440.108,2043v-15.953A11.943,11.943,0,0,0,428.165,2015.129ZM437.1,2043a8.925,8.925,0,0,1-8.932,8.894h-22.19l-3.823,7.785-6.069-7.98-.476-.14a8.722,8.722,0,0,1-6.284-8.41v-16.1a8.921,8.921,0,0,1,8.9-8.9h29.938a8.933,8.933,0,0,1,8.932,8.9Z"/>
    </g>
  </g>
</svg>
