<svg width="21" height="21" viewBox="0 0 21 21" fill="none" xmlns="http://www.w3.org/2000/svg">
<path d="M11.161 20.0002H4.375C3.21508 19.9989 2.10308 19.5376 1.2829 18.7174C0.462713 17.8972 0.00132335 16.7852 0 15.6252V10.8862C0.00132335 9.72631 0.462713 8.61428 1.2829 7.7941C2.10308 6.97391 3.21508 6.51255 4.375 6.51123H11.161C12.3209 6.51255 13.433 6.97391 14.2532 7.7941C15.0734 8.61428 15.5347 9.72631 15.536 10.8862V15.6252C15.5347 16.7852 15.0734 17.8972 14.2532 18.7174C13.433 19.5376 12.3209 19.9989 11.161 20.0002ZM4.375 7.76123C3.54652 7.76229 2.75233 8.09188 2.1665 8.6777C1.58068 9.26353 1.25106 10.0578 1.25 10.8862V15.6252C1.25106 16.4537 1.58068 17.2479 2.1665 17.8338C2.75233 18.4196 3.54652 18.7492 4.375 18.7502H11.161C11.9895 18.7492 12.7837 18.4196 13.3696 17.8338C13.9554 17.2479 14.285 16.4537 14.286 15.6252V10.8862C14.285 10.0578 13.9554 9.26353 13.3696 8.6777C12.7837 8.09188 11.9895 7.76229 11.161 7.76123H4.375Z" fill="#ffffff"/>
<path d="M12.288 7.76101C12.1223 7.76101 11.9633 7.69517 11.8461 7.57796C11.7289 7.46075 11.663 7.30177 11.663 7.13601V3.04802C11.6591 2.56717 11.4644 2.10755 11.1219 1.77007C10.7793 1.43259 10.3169 1.24481 9.83606 1.24801H5.70001C5.21916 1.24481 4.75673 1.43259 4.41418 1.77007C4.07164 2.10755 3.87701 2.56717 3.87305 3.04802V4.24801C3.87305 4.41377 3.80721 4.57275 3.69 4.68996C3.57279 4.80717 3.41381 4.87301 3.24805 4.87301C3.08229 4.87301 2.9233 4.80717 2.80609 4.68996C2.68888 4.57275 2.62305 4.41377 2.62305 4.24801V3.04802C2.62781 2.23626 2.95431 1.4595 3.53094 0.888112C4.10758 0.316728 4.88726 -0.0026417 5.69904 1.99498e-05H9.83502C10.647 -0.00290709 11.4269 0.316363 12.0038 0.887776C12.5806 1.45919 12.9073 2.23608 12.912 3.04802V7.13601C12.912 7.30159 12.8463 7.46041 12.7293 7.5776C12.6123 7.69478 12.4536 7.76074 12.288 7.76101Z" fill="#ffffff"/>
<path d="M7.76798 14.5059C7.52076 14.5059 7.27909 14.4326 7.07353 14.2952C6.86796 14.1579 6.70775 13.9626 6.61314 13.7342C6.51853 13.5058 6.4938 13.2545 6.54203 13.012C6.59026 12.7695 6.70926 12.5468 6.88407 12.372C7.05889 12.1971 7.28167 12.0781 7.52415 12.0299C7.76662 11.9817 8.01791 12.0064 8.24632 12.101C8.47472 12.1956 8.66994 12.3558 8.80729 12.5614C8.94464 12.7669 9.01798 13.0086 9.01798 13.2559C9.01772 13.5873 8.88595 13.9051 8.65159 14.1394C8.41723 14.3738 8.09942 14.5056 7.76798 14.5059Z" fill="#ffffff"/>
</svg>
