<svg xmlns="http://www.w3.org/2000/svg" width="21.75" height="21.75" viewBox="0 0 21.75 21.75">
  <path id="Icon_awesome-thumbs-up" data-name="Icon awesome-thumbs-up" d="M4.215,9.078H.973A.973.973,0,0,0,0,10.051v9.727a.973.973,0,0,0,.973.973H4.215a.973.973,0,0,0,.973-.973V10.051A.973.973,0,0,0,4.215,9.078ZM2.594,19.129a.973.973,0,1,1,.973-.973A.973.973,0,0,1,2.594,19.129ZM15.563,3.3c0,1.719-1.053,2.683-1.349,3.832h4.123A2.422,2.422,0,0,1,20.75,9.488a2.934,2.934,0,0,1-.788,1.994l0,0a3.385,3.385,0,0,1-.377,3.221,3.2,3.2,0,0,1-.664,3.03,2.151,2.151,0,0,1-.249,1.809c-.827,1.188-2.877,1.205-4.611,1.205h-.115A11.634,11.634,0,0,1,9.1,19.465a6.378,6.378,0,0,0-2.134-.656.486.486,0,0,1-.478-.486V9.659a.486.486,0,0,1,.144-.345c1.605-1.586,2.3-3.266,3.612-4.584A4.908,4.908,0,0,0,11.27,2.342C11.45,1.592,11.827,0,12.645,0,13.617,0,15.563.324,15.563,3.3Z" transform="translate(0.5 0.5)" fill="#fff" stroke="#43aae1" stroke-width="1"/>
</svg>
