<svg xmlns="http://www.w3.org/2000/svg" width="52.246" height="50.469" viewBox="0 0 52.246 50.469">
  <path id="Like" d="M440.1,1928.931a7.288,7.288,0,0,0-7.279-7.28H421.563v-8.111c0-3.432-1-5.9-2.984-7.355-3.134-2.3-7.44-.99-7.621-.926a1.3,1.3,0,0,0-.916,1.247v9.112c0,7.173-8.325,9.614-8.676,9.721a1.125,1.125,0,0,0-.288.117,3.772,3.772,0,0,0-3.368-2.089h-6.1a3.757,3.757,0,0,0-3.751,3.751v22.159a3.757,3.757,0,0,0,3.751,3.752h3.528a1.306,1.306,0,1,0,0-2.612h-3.528a1.141,1.141,0,0,1-1.14-1.14v-22.159a1.142,1.142,0,0,1,1.14-1.14h6.107a1.142,1.142,0,0,1,1.141,1.14v20.9a7.289,7.289,0,0,0,7.279,7.28h22.3c4.946,0,8.09-2.59,8.645-7.066l3.005-18.866a1.372,1.372,0,0,0,.021-.2v-.234Zm-2.6.117h-.011l-2.995,18.811c-.394,3.2-2.429,4.829-6.054,4.829h-22.3a4.674,4.674,0,0,1-4.668-4.669v-20.154a1.263,1.263,0,0,0,.6-.021c.437-.118,10.583-3.06,10.583-12.236v-8.058a6.092,6.092,0,0,1,4.381.735c1.269.938,1.919,2.7,1.919,5.255v9.422a1.31,1.31,0,0,0,1.311,1.311h12.566a4.673,4.673,0,0,1,4.668,4.668Z" transform="translate(-387.862 -1904.83)"/>
</svg>
