<svg xmlns="http://www.w3.org/2000/svg" width="57.8" height="57.54" viewBox="0 0 57.8 57.54">
  <g id="Share" transform="translate(-385.276 -2123.381)">
    <g id="Group_35" data-name="Group 35">
      <path id="Path_82" data-name="Path 82" d="M443.076,2152.131l-26.22-28.75v17.22h-3.171a28.434,28.434,0,0,0-28.409,28.4v11.92l4.9-5.38a36.643,36.643,0,0,1,26.27-11.87l.41-.01v17.23Zm-53.92,19.86-.68.67V2169a25.237,25.237,0,0,1,25.209-25.2h6.371v-12.17l18.69,20.5-18.69,20.5v-12.17h-2.95A39.94,39.94,0,0,0,389.156,2171.991Z" />
      <path id="Path_83" data-name="Path 83" d="M443.076,2152.131l-26.22-28.75v17.22h-3.171a28.434,28.434,0,0,0-28.409,28.4v11.92l4.9-5.38a36.643,36.643,0,0,1,26.27-11.87l.41-.01v17.23Zm-53.92,19.86-.68.67V2169a25.237,25.237,0,0,1,25.209-25.2h6.371v-12.17l18.69,20.5-18.69,20.5v-12.17h-2.95A39.94,39.94,0,0,0,389.156,2171.991Z" />
    </g>
  </g>
</svg>
